<?xml version="1.0" encoding="utf-8"?>
<!-- Generator: Adobe Illustrator 26.5.0, SVG Export Plug-In . SVG Version: 6.00 Build 0)  -->
<svg version="1.1" id="Layer_1" xmlns="http://www.w3.org/2000/svg" xmlns:xlink="http://www.w3.org/1999/xlink" x="0px" y="0px"
	 viewBox="0 0 107 33" style="enable-background:new 0 0 107 33;" xml:space="preserve">
<style type="text/css">
	.st0{fill:#282642;}
	.st1{fill:#FF4C60;}
</style>
<g>
	<g>
		<path class="st0" d="M1,27.6L9.4,6h5.3L23,27.6h-5.7L11.1,9.4h2L6.7,27.6H1z M6.1,23.8v-4.3h12v4.3H6.1z"/>
		<path class="st0" d="M30.7,28c-0.9,0-1.8-0.1-2.7-0.4s-1.7-0.6-2.5-1c-0.8-0.4-1.4-0.9-1.9-1.5l2.9-3c0.5,0.5,1.1,0.9,1.8,1.2
			c0.7,0.3,1.4,0.4,2.2,0.4c0.4,0,0.8-0.1,1-0.2c0.2-0.1,0.4-0.3,0.4-0.5c0-0.3-0.2-0.6-0.5-0.7c-0.3-0.2-0.8-0.3-1.3-0.5
			c-0.5-0.1-1.1-0.3-1.7-0.5c-0.6-0.2-1.2-0.4-1.7-0.8c-0.5-0.3-1-0.8-1.3-1.4c-0.3-0.6-0.5-1.4-0.5-2.3c0-1,0.3-1.8,0.8-2.5
			c0.5-0.7,1.2-1.3,2.2-1.7c1-0.4,2.1-0.6,3.3-0.6c1.3,0,2.5,0.2,3.7,0.6c1.1,0.4,2.1,1.1,2.8,2l-2.9,3c-0.5-0.6-1-1-1.6-1.2
			c-0.6-0.2-1.1-0.3-1.6-0.3c-0.5,0-0.8,0.1-1,0.2C30.1,16.7,30,16.8,30,17c0,0.3,0.2,0.5,0.5,0.6c0.3,0.2,0.8,0.3,1.3,0.4
			c0.5,0.1,1.1,0.3,1.7,0.5s1.1,0.5,1.7,0.8c0.5,0.4,1,0.8,1.3,1.4c0.3,0.6,0.5,1.4,0.5,2.3c0,1.5-0.6,2.6-1.7,3.5S32.6,28,30.7,28z
			"/>
		<path class="st0" d="M39.5,27.6V5.3h5.3v22.2H39.5z M49.2,27.6v-8.4c0-0.7-0.2-1.2-0.6-1.6c-0.4-0.4-0.9-0.6-1.5-0.6
			c-0.4,0-0.8,0.1-1.1,0.3c-0.3,0.2-0.6,0.4-0.8,0.8c-0.2,0.3-0.3,0.7-0.3,1.2l-2-1c0-1.2,0.2-2.2,0.7-3.1s1.2-1.5,2.1-2
			s1.9-0.7,3.1-0.7c1.2,0,2.2,0.2,3.1,0.7c0.9,0.5,1.6,1.1,2,2c0.5,0.8,0.7,1.8,0.7,2.9v9.7H49.2z"/>
		<path class="st0" d="M57.4,27.6V12.7h5.3v14.9H57.4z M62.8,19.5l-2.3-2c0.6-1.7,1.3-3,2.3-3.8c1-0.9,2.3-1.3,3.8-1.3
			c0.7,0,1.3,0.1,1.8,0.3c0.5,0.2,1,0.5,1.3,0.9l-3.1,4.1c-0.2-0.2-0.4-0.4-0.7-0.5c-0.3-0.1-0.6-0.2-1-0.2c-0.7,0-1.2,0.2-1.6,0.6
			C63,18,62.8,18.6,62.8,19.5z"/>
		<path class="st0" d="M79,27.9c-1.7,0-3.2-0.3-4.5-1c-1.3-0.7-2.3-1.6-3-2.8s-1.1-2.5-1.1-4c0-1.5,0.4-2.9,1.1-4s1.7-2.1,2.9-2.8
			c1.2-0.7,2.6-1,4.2-1c1.5,0,2.8,0.3,4,1c1.2,0.6,2.1,1.5,2.7,2.7s1,2.4,1,3.9c0,0.3,0,0.6-0.1,0.9s-0.1,0.7-0.2,1.1l-13.1,0.1
			v-3.4l11-0.1l-2.4,1.5c0-0.8-0.1-1.5-0.4-2c-0.2-0.5-0.5-1-1-1.2s-1-0.4-1.6-0.4s-1.2,0.2-1.7,0.5c-0.5,0.3-0.9,0.8-1.1,1.4
			c-0.3,0.6-0.4,1.3-0.4,2.1c0,0.9,0.1,1.6,0.4,2.2c0.3,0.6,0.7,1,1.2,1.3c0.5,0.3,1.2,0.4,2,0.4c0.7,0,1.4-0.1,1.9-0.4
			c0.6-0.2,1.1-0.6,1.5-1.1l2.8,2.7c-0.8,0.9-1.7,1.5-2.7,1.9C81.4,27.7,80.3,27.9,79,27.9z"/>
		<path class="st0" d="M87.1,17.1v-4.4h12.7v4.4H87.1z M90.3,27.6V11.7c0-1.2,0.3-2.4,0.8-3.4s1.3-1.8,2.4-2.4
			c1-0.6,2.3-0.9,3.7-0.9c1.1,0,2,0.2,2.9,0.5c0.8,0.3,1.5,0.8,2.1,1.4l-3.3,3.3c-0.2-0.2-0.4-0.3-0.6-0.4c-0.3-0.1-0.5-0.1-0.8-0.1
			c-0.5,0-1,0.2-1.3,0.5c-0.3,0.3-0.5,0.7-0.5,1.3v16.1H90.3z"/>
		<path class="st1" d="M105.5,27.9c-0.9,0-1.6-0.3-2.2-0.9s-0.9-1.3-0.9-2.2c0-0.9,0.3-1.6,0.9-2.2c0.6-0.6,1.3-0.9,2.2-0.9
			c0.9,0,1.6,0.3,2.2,0.9c0.6,0.6,0.9,1.3,0.9,2.2c0,0.8-0.3,1.6-0.9,2.2C107.1,27.6,106.4,27.9,105.5,27.9z"/>
	</g>
</g>
</svg>
